<svg xmlns="http://www.w3.org/2000/svg" version="1.1" xmlns:xlink="http://www.w3.org/1999/xlink" xmlns:svgjs="http://svgjs.dev/svgjs" width="1500" height="1500" viewBox="0 0 1500 1500"><rect width="1500" height="1500" fill="#000000"></rect><g transform="matrix(0.6666666666666666,0,0,0.6666666666666666,249.39393939393938,683.0703755198977)"><svg viewBox="0 0 396 53" data-background-color="#ffffff" preserveAspectRatio="xMidYMid meet" height="200" width="1500" xmlns="http://www.w3.org/2000/svg" xmlns:xlink="http://www.w3.org/1999/xlink"><g id="tight-bounds" transform="matrix(1,0,0,1,0.2400000000000091,0.10452573084069172)"><svg viewBox="0 0 395.52 52.79094853831863" height="52.79094853831863" width="395.52"><g><svg viewBox="0 0 478.8145225253099 63.908456760804114" height="52.79094853831863" width="395.52"><g transform="matrix(1,0,0,1,83.29452252530992,11.424752952461692)"><svg viewBox="0 0 395.52 41.05895085588073" height="41.05895085588073" width="395.52"><g id="textblocktransform"><svg viewBox="0 0 395.52 41.05895085588073" height="41.05895085588073" width="395.52" id="textblock"><g><svg viewBox="0 0 395.52 41.05895085588073" height="41.05895085588073" width="395.52"><g transform="matrix(1,0,0,1,0,0)"><svg width="395.52" viewBox="1.86 -36.23 353.68 36.72" height="41.05895085588073" data-palette-color="#000000"><path d="M28.13-29.13L17.31-29.13 17.31 0 12.67 0 12.67-29.13 1.86-29.13 1.86-32.93 28.13-32.93 28.13-29.13ZM48.19-26.42L48.19-3.47 57.47-3.47 57.47 0 33.49 0 33.49-3.47 43.8-3.47 43.8-22.95 36.01-22.95 36.01-26.42 48.19-26.42ZM48.19-31.54L43.31-31.54 43.31-36.23 48.19-36.23 48.19-31.54ZM63.18-13.23L63.18-13.23Q63.18-19.82 66.33-23.36 69.48-26.9 75.43-26.9L75.43-26.9Q79.88-26.9 82.76-24.77 85.64-22.63 86.32-19.02L86.32-19.02 81.64-18.68Q81.25-20.9 79.68-22.18 78.12-23.46 75.24-23.46L75.24-23.46Q71.38-23.46 69.59-21.07 67.79-18.68 67.79-13.33L67.79-13.33Q67.79-7.91 69.59-5.41 71.38-2.91 75.21-2.91L75.21-2.91Q77.85-2.91 79.58-4.2 81.32-5.49 81.73-8.15L81.73-8.15 86.37-7.86Q86.05-5.52 84.6-3.6 83.15-1.68 80.76-0.6 78.36 0.49 75.41 0.49L75.41 0.49Q69.43 0.49 66.3-3.03 63.18-6.54 63.18-13.23ZM117.47 0L112.32 0 103.39-12.18 100.16-9.79 100.16 0 95.77 0 95.77-36.23 100.16-36.23 100.16-13.6 111.76-26.42 116.91-26.42 106.19-15.06 117.47 0ZM146.72-12.28L127.87-12.28Q127.87-7.84 129.84-5.32 131.8-2.81 135.22-2.81L135.22-2.81Q137.73-2.81 139.63-3.89 141.52-4.98 142.15-6.86L142.15-6.86 146.01-5.76Q144.94-2.73 142.07-1.12 139.2 0.49 135.22 0.49L135.22 0.49Q129.46 0.49 126.36-3.1 123.26-6.69 123.26-13.38L123.26-13.38Q123.26-19.9 126.3-23.4 129.34-26.9 135.07-26.9L135.07-26.9Q140.81-26.9 143.76-23.41 146.72-19.92 146.72-12.87L146.72-12.87 146.72-12.28ZM135.12-23.66L135.12-23.66Q131.85-23.66 129.95-21.52 128.04-19.38 127.92-15.65L127.92-15.65 142.18-15.65Q141.49-23.66 135.12-23.66ZM158.75-22.95L154.65-22.95 154.65-26.42 158.8-26.42 160.22-33.3 163.15-33.3 163.15-26.42 173.69-26.42 173.69-22.95 163.15-22.95 163.15-7.03Q163.15-5.1 164.18-4.17 165.22-3.25 167.59-3.25L167.59-3.25Q170.86-3.25 174.84-4.08L174.84-4.08 174.84-0.73Q170.72 0.39 166.66 0.39L166.66 0.39Q162.71 0.39 160.73-1.28 158.75-2.95 158.75-6.57L158.75-6.57 158.75-22.95ZM206.85 0L202.89 0 202.89-21.19Q202.89-24.49 202.96-26.1L202.96-26.1 203.04-28.54Q201.47-23.51 200.72-21.44L200.72-21.44 196.71-10.74 193.37-10.74 189.32-21.44Q188.88-22.56 186.97-28.54L186.97-28.54 187.07-21.19 187.07 0 183.16 0 183.16-32.93 188.95-32.93 193.47-21Q193.98-19.7 195.13-15.36L195.13-15.36 195.76-17.55 196.84-20.97 201.35-32.93 206.85-32.93 206.85 0ZM236.9-2.71L236.9-2.71Q237.53-2.71 238.34-2.88L238.34-2.88 238.34-0.15Q236.68 0.24 234.94 0.24L234.94 0.24Q232.5 0.24 231.39-1.04 230.28-2.32 230.13-5.05L230.13-5.05 229.99-5.05Q228.4-2.1 226.24-0.81 224.08 0.49 220.91 0.49L220.91 0.49Q217.05 0.49 215.09-1.61 213.14-3.71 213.14-7.37L213.14-7.37Q213.14-15.89 224.23-16.02L224.23-16.02 229.99-16.11 229.99-17.55Q229.99-20.75 228.69-22.16 227.4-23.56 224.57-23.56L224.57-23.56Q221.69-23.56 220.42-22.53 219.15-21.51 218.9-19.36L218.9-19.36 214.31-19.78Q215.44-26.9 224.64-26.9L224.64-26.9Q229.52-26.9 231.98-24.62 234.43-22.34 234.43-18.02L234.43-18.02 234.43-6.64Q234.43-4.69 234.94-3.7 235.46-2.71 236.9-2.71ZM222.03-2.86L222.03-2.86Q224.37-2.86 226.18-3.98 227.99-5.1 228.99-6.98 229.99-8.86 229.99-10.86L229.99-10.86 229.99-13.04 225.35-12.94Q222.47-12.89 220.95-12.3 219.44-11.72 218.6-10.51 217.76-9.3 217.76-7.3L217.76-7.3Q217.76-5.3 218.84-4.08 219.93-2.86 222.03-2.86ZM265.9-7.54L265.9-7.54Q265.9-3.78 263.05-1.65 260.21 0.49 255.18 0.49L255.18 0.49Q250.15 0.49 247.53-1.09 244.9-2.66 244.1-6.05L244.1-6.05 247.98-6.81Q248.44-4.71 249.97-3.75 251.49-2.78 255.18-2.78L255.18-2.78Q261.77-2.78 261.77-6.96L261.77-6.96Q261.77-8.52 260.58-9.48 259.38-10.45 256.91-11.06L256.91-11.06Q250.47-12.65 248.73-13.55 247-14.45 246.07-15.81 245.15-17.16 245.15-19.19L245.15-19.19Q245.15-22.78 247.73-24.8 250.32-26.83 255.23-26.83L255.23-26.83Q259.53-26.83 262.09-25.21 264.65-23.58 265.29-20.48L265.29-20.48 261.33-20Q261.06-21.75 259.6-22.66 258.13-23.56 255.23-23.56L255.23-23.56Q249.25-23.56 249.25-19.87L249.25-19.87Q249.25-18.41 250.26-17.53 251.27-16.65 253.52-16.11L253.52-16.11 256.43-15.36Q260.4-14.38 262.15-13.43 263.9-12.48 264.9-11.05 265.9-9.62 265.9-7.54ZM278.76-22.95L274.66-22.95 274.66-26.42 278.81-26.42 280.23-33.3 283.16-33.3 283.16-26.42 293.7-26.42 293.7-22.95 283.16-22.95 283.16-7.03Q283.16-5.1 284.19-4.17 285.23-3.25 287.6-3.25L287.6-3.25Q290.87-3.25 294.85-4.08L294.85-4.08 294.85-0.73Q290.72 0.39 286.67 0.39L286.67 0.39Q282.72 0.39 280.74-1.28 278.76-2.95 278.76-6.57L278.76-6.57 278.76-22.95ZM326.73-12.28L307.89-12.28Q307.89-7.84 309.85-5.32 311.82-2.81 315.23-2.81L315.23-2.81Q317.75-2.81 319.64-3.89 321.53-4.98 322.17-6.86L322.17-6.86 326.02-5.76Q324.95-2.73 322.08-1.12 319.21 0.49 315.23 0.49L315.23 0.49Q309.47 0.49 306.37-3.1 303.27-6.69 303.27-13.38L303.27-13.38Q303.27-19.9 306.31-23.4 309.35-26.9 315.09-26.9L315.09-26.9Q320.82-26.9 323.78-23.41 326.73-19.92 326.73-12.87L326.73-12.87 326.73-12.28ZM315.14-23.66L315.14-23.66Q311.86-23.66 309.96-21.52 308.06-19.38 307.93-15.65L307.93-15.65 322.19-15.65Q321.51-23.66 315.14-23.66ZM355.54-26.49L355.54-22.41Q352.8-22.88 350.36-22.88L350.36-22.88Q346.43-22.88 344.02-19.92 341.6-16.97 341.6-12.4L341.6-12.4 341.6 0 337.2 0 337.2-17.11Q337.2-18.97 336.87-21.48 336.54-24 335.93-26.42L335.93-26.42 340.11-26.42Q341.09-23.05 341.28-20.31L341.28-20.31 341.4-20.31Q342.62-23.05 343.8-24.33 344.97-25.61 346.58-26.26 348.19-26.9 350.51-26.9L350.51-26.9Q353.05-26.9 355.54-26.49L355.54-26.49Z" opacity="1" transform="matrix(1,0,0,1,0,0)" fill="#ffffff" class="wordmark-text-0" data-fill-palette-color="primary" id="text-0"></path></svg></g></svg></g></svg></g></svg></g><g><svg viewBox="0 0 63.908456760804114 63.908456760804114" height="63.908456760804114" width="63.908456760804114"><g><svg></svg></g><g id="icon-0"><svg viewBox="0 0 63.908456760804114 63.908456760804114" height="63.908456760804114" width="63.908456760804114"><g><path d="M0 31.954c0-17.648 14.306-31.954 31.954-31.954 17.648 0 31.954 14.306 31.954 31.954 0 17.648-14.306 31.954-31.954 31.954-17.648 0-31.954-14.306-31.954-31.954zM31.954 60.206c15.603 0 28.251-12.649 28.252-28.252 0-15.603-12.649-28.251-28.252-28.251-15.603 0-28.251 12.649-28.251 28.251 0 15.603 12.649 28.251 28.251 28.252z" data-fill-palette-color="tertiary" fill="#ffffff" stroke="transparent"></path></g><g transform="matrix(1,0,0,1,14.447686479994776,22.970566336989855)"><svg viewBox="0 0 35.01308380081456 17.9673240868244" height="17.9673240868244" width="35.01308380081456"><g><svg xmlns="http://www.w3.org/2000/svg" xmlns:xlink="http://www.w3.org/1999/xlink" version="1.1" x="0" y="0" viewBox="6.319 12.876 71.541 36.712" enable-background="new 0 0 84.559 58.088" xml:space="preserve" height="17.9673240868244" width="35.01308380081456" class="icon-dxe-0" data-fill-palette-color="accent" id="dxe-0"><path d="M77.859 34.853A3.92 3.92 0 0 1 75.083 33.703 3.93 3.93 0 0 1 77.859 26.997V12.877L6.32 12.876 6.319 27.151C7.404 27.151 8.386 27.589 9.097 28.301A3.93 3.93 0 0 1 6.32 35.007V49.588H77.86zM12.596 39.119A10.2 10.2 0 0 0 16.523 31.078C16.523 28.353 15.461 25.791 13.536 23.865A11 11 0 0 0 12.597 23.031V19.152L71.584 19.153V22.885A10.19 10.19 0 0 0 67.657 30.926 10.14 10.14 0 0 0 70.646 38.141C70.944 38.439 71.258 38.717 71.584 38.973V43.312H12.596z" fill="#ffffff" data-fill-palette-color="accent"></path></svg></g></svg></g></svg></g></svg></g></svg></g><defs></defs></svg><rect width="395.52" height="52.79094853831863" fill="none" stroke="none" visibility="hidden"></rect></g></svg></g></svg>